HIERARCHY
ROOT Hips
{
 OFFSET 0.000000 0.000000 0.000000
 CHANNELS 6 Xposition Yposition Zposition Yrotation Xrotation Zrotation
 JOINT Chest
 {
  OFFSET 0.000000 9.585900 0.002600
  CHANNELS 3 Yrotation Xrotation Zrotation
  JOINT Chest2
  {
   OFFSET 0.000000 9.601200 -0.005300
   CHANNELS 3 Yrotation Xrotation Zrotation
   JOINT Chest3
   {
    OFFSET 0.000000 9.561800 0.000000
    CHANNELS 3 Yrotation Xrotation Zrotation
    JOINT Chest4
    {
     OFFSET 0.000000 9.552100 0.000000
     CHANNELS 3 Yrotation Xrotation Zrotation
     JOINT Neck
     {
      OFFSET 0.000000 14.453000 0.000000
      CHANNELS 3 Yrotation Xrotation Zrotation
      JOINT Head
      {
       OFFSET 0.000000 8.936500 -0.011300
       CHANNELS 3 Yrotation Xrotation Zrotation
       End Site
       {
        OFFSET 0.000000 17.073600 -0.006000
       }
      }
     }
     JOINT RightCollar
     {
      OFFSET -2.921100 9.558500 0.000000
      CHANNELS 3 Yrotation Xrotation Zrotation
      JOINT RightShoulder
      {
       OFFSET -13.519700 0.000000 0.000000
       CHANNELS 3 Yrotation Xrotation Zrotation
       JOINT RightElbow
       {
        OFFSET 0.000000 -29.696600 0.000000
        CHANNELS 3 Yrotation Xrotation Zrotation
        JOINT RightWrist
        {
         OFFSET 0.000000 -24.004700 0.000000
         CHANNELS 3 Yrotation Xrotation Zrotation
         End Site
         {
          OFFSET 0.000000 -17.728500 0.000000
         }
        }
       }
      }
     }
     JOINT LeftCollar
     {
      OFFSET 2.921100 9.558500 0.000000
      CHANNELS 3 Yrotation Xrotation Zrotation
      JOINT LeftShoulder
      {
       OFFSET 13.519700 0.000000 0.000000
       CHANNELS 3 Yrotation Xrotation Zrotation
       JOINT LeftElbow
       {
        OFFSET 0.000000 -29.696600 0.000000
        CHANNELS 3 Yrotation Xrotation Zrotation
        JOINT LeftWrist
        {
         OFFSET 0.000000 -24.004700 0.000000
         CHANNELS 3 Yrotation Xrotation Zrotation
         End Site
         {
          OFFSET 0.000000 -17.728500 0.000000
         }
        }
       }
      }
     }
    }
   }
  }
 }
 JOINT RightHip
 {
  OFFSET -7.771700 -0.012900 -0.001300
  CHANNELS 3 Yrotation Xrotation Zrotation
  JOINT RightKnee
  {
   OFFSET 0.000000 -40.869800 0.001200
   CHANNELS 3 Yrotation Xrotation Zrotation
   JOINT RightAnkle
   {
    OFFSET 0.000000 -39.717900 0.002100
    CHANNELS 3 Yrotation Xrotation Zrotation
    JOINT RightToe
    {
     OFFSET 0.000000 -4.965400 11.033500
     CHANNELS 3 Yrotation Xrotation Zrotation
     End Site
     {
      OFFSET 0.000000 -1.423100 5.872300
     }
    }
   }
  }
 }
 JOINT LeftHip
 {
  OFFSET 7.771700 -0.012900 -0.001300
  CHANNELS 3 Yrotation Xrotation Zrotation
  JOINT LeftKnee
  {
   OFFSET 0.000000 -40.869800 0.001200
   CHANNELS 3 Yrotation Xrotation Zrotation
   JOINT LeftAnkle
   {
    OFFSET 0.000000 -39.717900 0.002100
    CHANNELS 3 Yrotation Xrotation Zrotation
    JOINT LeftToe
    {
     OFFSET 0.000000 -4.965400 11.033500
     CHANNELS 3 Yrotation Xrotation Zrotation
     End Site
     {
      OFFSET 0.000000 -1.423100 5.872300
     }
    }
   }
  }
 }
}
MOTION
Frames: 5
Frame Time: 0.008333
0.000000 85.388000 0.000000 0.000000 -5.767877 0.000000 0.000000 11.653817 0.000000 0.000000 -5.885947 0.000000 0.000000 -0.000000 0.000000 0.000000 -0.000000 0.000000 0.000000 12.528835 0.000000 0.000000 0.711642 0.000000 0.000000 -0.000000 0.000000 0.000000 0.000000 -90.000000 0.000000 -2.309062 0.000000 0.000000 2.309062 0.000000 0.000000 -0.000000 0.000000 0.000000 -0.000000 90.000000 0.000000 -2.309062 0.000000 0.000000 2.309062 0.000000 0.000000 8.520406 0.000000 0.000000 1.905762 0.000000 -0.000000 -4.658285 0.000000 0.000000 -0.000000 0.000000 0.000000 8.520406 0.000000 0.000000 1.905762 0.000000 -0.000000 -4.658285 0.000000 0.000000 -0.000000 0.000000
-26.102954 58.214917 75.816841 178.668045 -32.511035 -1.702093 5.793177 18.428710 4.894655 0.633866 2.326570 0.342696 1.043780 3.826513 0.564120 4.847703 16.260091 2.991739 -8.988354 12.446024 -2.150322 -16.112291 -12.482361 -0.397131 0.672087 -4.659768 1.180684 13.174196 -15.506883 -22.797082 -57.005056 -83.429073 106.287555 15.873601 -17.951093 -47.752570 -2.750842 -0.124269 1.601166 31.758089 -5.775620 3.780478 -118.414174 -49.861249 118.066490 -6.736777 -13.257930 26.915754 6.963159 -37.708793 -6.442117 -3.405548 65.070134 -3.160157 4.197658 7.928304 6.210461 -0.037063 0.175691 -0.010917 -6.084503 -44.386402 -0.159384 28.071932 56.847094 25.980416 -8.524144 39.784389 4.893210 0.181965 -17.962135 -6.357050
-26.108298 58.216474 75.814164 178.674606 -32.517771 -1.683495 5.785912 18.435255 4.883260 0.630486 2.326947 0.338224 1.044329 3.822092 0.569835 4.841361 16.256121 2.995641 -8.953636 12.431300 -2.149779 -16.047975 -12.510891 -0.406725 0.683095 -4.678547 1.188982 13.161585 -15.482001 -22.804238 -57.107811 -83.417654 106.376305 15.878819 -17.936613 -47.747024 -2.751972 -0.116359 1.589873 31.670010 -5.775858 3.699231 -118.298856 -49.841731 117.979986 -6.681313 -13.264564 26.844469 6.983116 -37.699580 -6.478484 -3.407802 65.080954 -3.156246 4.198305 7.917701 6.211231 -0.040039 0.173412 -0.011865 -6.057581 -44.378006 -0.192561 28.134279 56.831106 26.010823 -8.507629 39.775929 4.962383 0.155394 -17.956580 -6.368870
-26.112075 58.217515 75.812615 178.683354 -32.515513 -1.675707 5.784277 18.432857 4.889783 0.628075 2.325767 0.333182 1.038340 3.813667 0.578443 4.817344 16.249706 2.991986 -8.910704 12.427089 -2.157754 -16.028541 -12.517386 -0.418068 0.699447 -4.666173 1.173736 13.143101 -15.495029 -22.781425 -56.946821 -83.423334 106.233281 15.884295 -17.943037 -47.780438 -2.742082 -0.109095 1.581842 31.593417 -5.762740 3.632885 -118.298018 -49.927935 117.879286 -6.773551 -13.259063 26.881124 6.987962 -37.699755 -6.497885 -3.406633 65.088411 -3.154676 4.201094 7.907874 6.208205 -0.040086 0.172232 -0.009279 -6.045172 -44.376957 -0.210475 28.154012 56.819283 26.017489 -8.511729 39.775050 4.980332 0.156750 -17.947879 -6.370234
-26.114419 58.218598 75.811351 178.694362 -32.510752 -1.677033 5.772963 18.428777 4.889416 0.626756 2.323591 0.337819 1.036924 3.807621 0.576396 4.810138 16.248651 2.989239 -8.873749 12.412844 -2.152344 -15.942469 -12.558967 -0.424082 0.706296 -4.662991 1.172400 13.119760 -15.507134 -22.754569 -56.873916 -83.428583 106.175665 15.896313 -17.952518 -47.816531 -2.765610 -0.125550 1.601444 31.532679 -5.729896 3.569316 -118.257725 -49.949939 117.783749 -6.806424 -13.255337 26.891408 6.986026 -37.702118 -6.504538 -3.380314 65.094368 -3.131779 4.186051 7.899795 6.208086 -0.037768 0.168229 -0.011946 -6.047130 -44.379764 -0.216095 28.174638 56.809945 26.028529 -8.513287 39.774078 4.986628 0.159715 -17.941045 -6.366318
